<mxfile host="app.diagrams.net" modified="2023-11-08T09:40:29.326Z" agent="Mozilla/5.0 (X11; Linux x86_64) AppleWebKit/537.36 (KHTML, like Gecko) Chrome/119.0.0.0 Safari/537.36" etag="XkRGZggxBb7aCjEcMFQG" version="22.0.8" type="device">
  <diagram name="Page-1" id="q21v9VMaZ5GQ3Boq6yVd">
    <mxGraphModel dx="1396" dy="890" grid="1" gridSize="10" guides="1" tooltips="1" connect="1" arrows="1" fold="1" page="1" pageScale="1" pageWidth="1920" pageHeight="1200" math="0" shadow="0">
      <root>
        <mxCell id="0" />
        <mxCell id="1" parent="0" />
        <mxCell id="XXvjQiuoDlwYBHkbLlCv-8" value="" style="endArrow=classic;html=1;rounded=1;exitX=0.5;exitY=1;exitDx=0;exitDy=0;labelBackgroundColor=none;fontColor=default;" edge="1" parent="1" source="XXvjQiuoDlwYBHkbLlCv-12">
          <mxGeometry width="50" height="50" relative="1" as="geometry">
            <mxPoint x="430" y="471" as="sourcePoint" />
            <mxPoint x="140" y="446" as="targetPoint" />
          </mxGeometry>
        </mxCell>
        <mxCell id="XXvjQiuoDlwYBHkbLlCv-9" value="&lt;div style=&quot;text-align: center;&quot;&gt;&lt;span style=&quot;font-size: 11px; background-color: rgb(255, 255, 255);&quot;&gt;user not authenticated&lt;/span&gt;&lt;/div&gt;" style="text;whiteSpace=wrap;html=1;labelBackgroundColor=none;rounded=1;" vertex="1" parent="1">
          <mxGeometry x="87" y="386" width="112" height="32" as="geometry" />
        </mxCell>
        <mxCell id="XXvjQiuoDlwYBHkbLlCv-10" value="&lt;span style=&quot;color: rgb(0, 0, 0); font-family: Helvetica; font-size: 11px; font-style: normal; font-variant-ligatures: normal; font-variant-caps: normal; letter-spacing: normal; orphans: 2; text-align: center; text-indent: 0px; text-transform: none; widows: 2; word-spacing: 0px; -webkit-text-stroke-width: 0px; background-color: rgb(255, 255, 255); text-decoration-thickness: initial; text-decoration-style: initial; text-decoration-color: initial; float: none; display: inline !important;&quot;&gt;Landing/Splash page&lt;/span&gt;" style="text;whiteSpace=wrap;html=1;labelBackgroundColor=none;rounded=1;fontStyle=1" vertex="1" parent="1">
          <mxGeometry x="87" y="21" width="115" height="40" as="geometry" />
        </mxCell>
        <mxCell id="XXvjQiuoDlwYBHkbLlCv-11" value="" style="group;labelBackgroundColor=none;rounded=1;" vertex="1" connectable="0" parent="1">
          <mxGeometry x="70" y="51" width="140" height="290" as="geometry" />
        </mxCell>
        <mxCell id="XXvjQiuoDlwYBHkbLlCv-12" value="" style="rounded=1;whiteSpace=wrap;html=1;labelBackgroundColor=none;" vertex="1" parent="XXvjQiuoDlwYBHkbLlCv-11">
          <mxGeometry width="140" height="290" as="geometry" />
        </mxCell>
        <mxCell id="XXvjQiuoDlwYBHkbLlCv-13" value="Logo" style="whiteSpace=wrap;html=1;aspect=fixed;labelBackgroundColor=none;rounded=1;" vertex="1" parent="XXvjQiuoDlwYBHkbLlCv-11">
          <mxGeometry x="30" y="120" width="80" height="80" as="geometry" />
        </mxCell>
        <mxCell id="XXvjQiuoDlwYBHkbLlCv-14" value="" style="endArrow=none;html=1;rounded=1;labelBackgroundColor=none;fontColor=default;" edge="1" parent="XXvjQiuoDlwYBHkbLlCv-11">
          <mxGeometry width="50" height="50" relative="1" as="geometry">
            <mxPoint x="35" y="240" as="sourcePoint" />
            <mxPoint x="105" y="240" as="targetPoint" />
          </mxGeometry>
        </mxCell>
        <mxCell id="XXvjQiuoDlwYBHkbLlCv-15" value="Loading..." style="edgeLabel;html=1;align=center;verticalAlign=middle;resizable=0;points=[];labelBackgroundColor=none;rounded=1;" vertex="1" connectable="0" parent="XXvjQiuoDlwYBHkbLlCv-14">
          <mxGeometry x="0.6" y="-4" relative="1" as="geometry">
            <mxPoint x="-21" y="6" as="offset" />
          </mxGeometry>
        </mxCell>
        <mxCell id="XXvjQiuoDlwYBHkbLlCv-16" value="&lt;span style=&quot;color: rgb(0, 0, 0); font-family: Helvetica; font-size: 11px; font-style: normal; font-variant-ligatures: normal; font-variant-caps: normal; font-weight: 400; letter-spacing: normal; orphans: 2; text-align: center; text-indent: 0px; text-transform: none; widows: 2; word-spacing: 0px; -webkit-text-stroke-width: 0px; background-color: rgb(255, 255, 255); text-decoration-thickness: initial; text-decoration-style: initial; text-decoration-color: initial; float: none; display: inline !important;&quot;&gt;Application Name&lt;/span&gt;" style="text;whiteSpace=wrap;html=1;labelBackgroundColor=none;rounded=1;" vertex="1" parent="XXvjQiuoDlwYBHkbLlCv-11">
          <mxGeometry x="25" y="60" width="90" height="40" as="geometry" />
        </mxCell>
        <mxCell id="XXvjQiuoDlwYBHkbLlCv-17" value="" style="group;labelBackgroundColor=none;rounded=1;" vertex="1" connectable="0" parent="1">
          <mxGeometry x="71" y="462" width="140" height="290" as="geometry" />
        </mxCell>
        <mxCell id="XXvjQiuoDlwYBHkbLlCv-18" value="" style="rounded=1;whiteSpace=wrap;html=1;labelBackgroundColor=none;" vertex="1" parent="XXvjQiuoDlwYBHkbLlCv-17">
          <mxGeometry width="140" height="290" as="geometry" />
        </mxCell>
        <mxCell id="XXvjQiuoDlwYBHkbLlCv-19" value="&lt;span style=&quot;color: rgb(0, 0, 0); font-family: Helvetica; font-size: 11px; font-style: normal; font-variant-ligatures: normal; font-variant-caps: normal; font-weight: 400; letter-spacing: normal; orphans: 2; text-align: center; text-indent: 0px; text-transform: none; widows: 2; word-spacing: 0px; -webkit-text-stroke-width: 0px; background-color: rgb(255, 255, 255); text-decoration-thickness: initial; text-decoration-style: initial; text-decoration-color: initial; float: none; display: inline !important;&quot;&gt;Application Name&lt;/span&gt;" style="text;whiteSpace=wrap;html=1;labelBackgroundColor=none;rounded=1;" vertex="1" parent="XXvjQiuoDlwYBHkbLlCv-17">
          <mxGeometry x="25" y="10" width="90" height="40" as="geometry" />
        </mxCell>
        <mxCell id="XXvjQiuoDlwYBHkbLlCv-20" value="&lt;span style=&quot;color: rgb(0, 0, 0); font-family: Helvetica; font-size: 11px; font-style: normal; font-variant-ligatures: normal; font-variant-caps: normal; font-weight: 400; letter-spacing: normal; orphans: 2; text-align: center; text-indent: 0px; text-transform: none; widows: 2; word-spacing: 0px; -webkit-text-stroke-width: 0px; background-color: rgb(255, 255, 255); text-decoration-thickness: initial; text-decoration-style: initial; text-decoration-color: initial; float: none; display: inline !important;&quot;&gt;Welcome text&lt;/span&gt;" style="text;whiteSpace=wrap;html=1;labelBackgroundColor=none;rounded=1;" vertex="1" parent="XXvjQiuoDlwYBHkbLlCv-17">
          <mxGeometry x="32.5" y="60" width="75" height="40" as="geometry" />
        </mxCell>
        <mxCell id="XXvjQiuoDlwYBHkbLlCv-21" value="email input" style="rounded=1;whiteSpace=wrap;html=1;labelBackgroundColor=none;" vertex="1" parent="XXvjQiuoDlwYBHkbLlCv-17">
          <mxGeometry x="10" y="100" width="120" height="30" as="geometry" />
        </mxCell>
        <mxCell id="XXvjQiuoDlwYBHkbLlCv-22" value="password input" style="rounded=1;whiteSpace=wrap;html=1;labelBackgroundColor=none;" vertex="1" parent="XXvjQiuoDlwYBHkbLlCv-17">
          <mxGeometry x="10" y="140" width="120" height="30" as="geometry" />
        </mxCell>
        <mxCell id="XXvjQiuoDlwYBHkbLlCv-23" value="&lt;font color=&quot;#ffffff&quot;&gt;Login&lt;/font&gt;" style="rounded=1;whiteSpace=wrap;html=1;labelBackgroundColor=none;fillColor=#000000;" vertex="1" parent="XXvjQiuoDlwYBHkbLlCv-17">
          <mxGeometry x="10" y="190" width="120" height="30" as="geometry" />
        </mxCell>
        <mxCell id="XXvjQiuoDlwYBHkbLlCv-24" value="create an account" style="text;html=1;align=center;verticalAlign=middle;resizable=0;points=[];autosize=1;strokeColor=default;fillColor=none;labelBackgroundColor=none;rounded=1;" vertex="1" parent="XXvjQiuoDlwYBHkbLlCv-17">
          <mxGeometry x="13.5" y="238" width="113" height="26" as="geometry" />
        </mxCell>
        <mxCell id="XXvjQiuoDlwYBHkbLlCv-25" value="" style="rounded=1;whiteSpace=wrap;html=1;labelBackgroundColor=none;" vertex="1" parent="1">
          <mxGeometry x="75.96" y="811.96" width="140" height="290" as="geometry" />
        </mxCell>
        <mxCell id="XXvjQiuoDlwYBHkbLlCv-26" value="" style="group;labelBackgroundColor=none;rounded=1;" vertex="1" connectable="0" parent="1">
          <mxGeometry x="85.96" y="831.96" width="120" height="210" as="geometry" />
        </mxCell>
        <mxCell id="XXvjQiuoDlwYBHkbLlCv-27" value="&lt;span style=&quot;color: rgb(0, 0, 0); font-family: Helvetica; font-size: 11px; font-style: normal; font-variant-ligatures: normal; font-variant-caps: normal; font-weight: 400; letter-spacing: normal; orphans: 2; text-align: center; text-indent: 0px; text-transform: none; widows: 2; word-spacing: 0px; -webkit-text-stroke-width: 0px; background-color: rgb(255, 255, 255); text-decoration-thickness: initial; text-decoration-style: initial; text-decoration-color: initial; float: none; display: inline !important;&quot;&gt;Application Name&lt;/span&gt;" style="text;whiteSpace=wrap;html=1;labelBackgroundColor=none;rounded=1;" vertex="1" parent="XXvjQiuoDlwYBHkbLlCv-26">
          <mxGeometry x="15" width="90" height="40" as="geometry" />
        </mxCell>
        <mxCell id="XXvjQiuoDlwYBHkbLlCv-28" value="&lt;span style=&quot;color: rgb(0, 0, 0); font-family: Helvetica; font-size: 11px; font-style: normal; font-variant-ligatures: normal; font-variant-caps: normal; font-weight: 400; letter-spacing: normal; orphans: 2; text-align: center; text-indent: 0px; text-transform: none; widows: 2; word-spacing: 0px; -webkit-text-stroke-width: 0px; background-color: rgb(255, 255, 255); text-decoration-thickness: initial; text-decoration-style: initial; text-decoration-color: initial; float: none; display: inline !important;&quot;&gt;Welcome text&lt;/span&gt;" style="text;whiteSpace=wrap;html=1;labelBackgroundColor=none;rounded=1;" vertex="1" parent="XXvjQiuoDlwYBHkbLlCv-26">
          <mxGeometry x="22.5" y="50" width="75" height="40" as="geometry" />
        </mxCell>
        <mxCell id="XXvjQiuoDlwYBHkbLlCv-29" value="email input" style="rounded=1;whiteSpace=wrap;html=1;labelBackgroundColor=none;" vertex="1" parent="XXvjQiuoDlwYBHkbLlCv-26">
          <mxGeometry y="81" width="120" height="30" as="geometry" />
        </mxCell>
        <mxCell id="XXvjQiuoDlwYBHkbLlCv-30" value="password input" style="rounded=1;whiteSpace=wrap;html=1;labelBackgroundColor=none;" vertex="1" parent="XXvjQiuoDlwYBHkbLlCv-26">
          <mxGeometry y="117" width="120" height="30" as="geometry" />
        </mxCell>
        <mxCell id="XXvjQiuoDlwYBHkbLlCv-31" value="password input" style="rounded=1;whiteSpace=wrap;html=1;labelBackgroundColor=none;" vertex="1" parent="XXvjQiuoDlwYBHkbLlCv-26">
          <mxGeometry y="152" width="120" height="30" as="geometry" />
        </mxCell>
        <mxCell id="XXvjQiuoDlwYBHkbLlCv-32" value="&lt;font color=&quot;#ffffff&quot;&gt;Register&lt;/font&gt;" style="rounded=1;whiteSpace=wrap;html=1;labelBackgroundColor=none;fillColor=#000000;" vertex="1" parent="1">
          <mxGeometry x="85.96" y="1022.96" width="120" height="30" as="geometry" />
        </mxCell>
        <mxCell id="XXvjQiuoDlwYBHkbLlCv-33" value="" style="endArrow=classic;html=1;rounded=1;entryX=0.052;entryY=0.016;entryDx=0;entryDy=0;entryPerimeter=0;labelBackgroundColor=none;fontColor=default;" edge="1" parent="1" source="XXvjQiuoDlwYBHkbLlCv-24" target="XXvjQiuoDlwYBHkbLlCv-25">
          <mxGeometry width="50" height="50" relative="1" as="geometry">
            <mxPoint x="139.95648791030655" y="752.96" as="sourcePoint" />
            <mxPoint x="357.96" y="831.96" as="targetPoint" />
          </mxGeometry>
        </mxCell>
        <mxCell id="XXvjQiuoDlwYBHkbLlCv-34" style="edgeStyle=orthogonalEdgeStyle;rounded=1;orthogonalLoop=1;jettySize=auto;html=1;exitX=0;exitY=0.25;exitDx=0;exitDy=0;labelBackgroundColor=none;fontColor=default;" edge="1" parent="1">
          <mxGeometry relative="1" as="geometry">
            <mxPoint x="65.96" y="730.96" as="targetPoint" />
            <mxPoint x="75.96" y="1044.96" as="sourcePoint" />
            <Array as="points">
              <mxPoint x="19.96" y="1044.96" />
              <mxPoint x="19.96" y="729.96" />
              <mxPoint x="59.96" y="729.96" />
              <mxPoint x="59.96" y="730.96" />
            </Array>
          </mxGeometry>
        </mxCell>
        <mxCell id="XXvjQiuoDlwYBHkbLlCv-35" value="&amp;nbsp; On registration success&amp;nbsp;&amp;nbsp;" style="edgeLabel;html=1;align=center;verticalAlign=middle;resizable=0;points=[];rotation=270;labelBackgroundColor=none;rounded=1;" vertex="1" connectable="0" parent="XXvjQiuoDlwYBHkbLlCv-34">
          <mxGeometry x="-0.8431" y="3" relative="1" as="geometry">
            <mxPoint x="-14" y="-135" as="offset" />
          </mxGeometry>
        </mxCell>
        <mxCell id="XXvjQiuoDlwYBHkbLlCv-36" value="" style="endArrow=classic;html=1;rounded=1;entryX=1.007;entryY=0.348;entryDx=0;entryDy=0;entryPerimeter=0;labelBackgroundColor=none;fontColor=default;" edge="1" parent="1" target="XXvjQiuoDlwYBHkbLlCv-25">
          <mxGeometry width="50" height="50" relative="1" as="geometry">
            <mxPoint x="222.96" y="1045.96" as="sourcePoint" />
            <mxPoint x="233.96" y="909.96" as="targetPoint" />
            <Array as="points">
              <mxPoint x="286.96" y="1045.96" />
              <mxPoint x="286.96" y="912.96" />
            </Array>
          </mxGeometry>
        </mxCell>
        <mxCell id="XXvjQiuoDlwYBHkbLlCv-37" value="&lt;span style=&quot;color: rgb(0, 0, 0); font-family: Helvetica; font-size: 11px; font-style: normal; font-variant-ligatures: normal; font-variant-caps: normal; font-weight: 400; letter-spacing: normal; orphans: 2; text-align: center; text-indent: 0px; text-transform: none; widows: 2; word-spacing: 0px; -webkit-text-stroke-width: 0px; background-color: rgb(255, 255, 255); text-decoration-thickness: initial; text-decoration-style: initial; text-decoration-color: initial; float: none; display: inline !important;&quot;&gt;&amp;nbsp; On registration failure&amp;nbsp;&amp;nbsp;&lt;/span&gt;" style="text;whiteSpace=wrap;html=1;rotation=90;labelBackgroundColor=none;rounded=1;" vertex="1" parent="1">
          <mxGeometry x="196.00333333333327" y="974.9642857142856" width="150" height="36" as="geometry" />
        </mxCell>
        <mxCell id="XXvjQiuoDlwYBHkbLlCv-38" style="edgeStyle=orthogonalEdgeStyle;rounded=1;orthogonalLoop=1;jettySize=auto;html=1;exitX=-0.007;exitY=0.628;exitDx=0;exitDy=0;exitPerimeter=0;labelBackgroundColor=none;fontColor=default;" edge="1" parent="1" source="XXvjQiuoDlwYBHkbLlCv-18">
          <mxGeometry relative="1" as="geometry">
            <mxPoint x="69" y="497" as="targetPoint" />
            <mxPoint x="79" y="811" as="sourcePoint" />
            <Array as="points">
              <mxPoint x="70" y="646" />
              <mxPoint x="23" y="646" />
              <mxPoint x="23" y="496" />
              <mxPoint x="63" y="496" />
            </Array>
          </mxGeometry>
        </mxCell>
        <mxCell id="XXvjQiuoDlwYBHkbLlCv-39" value="&amp;nbsp; On login failure&amp;nbsp;&amp;nbsp;" style="edgeLabel;html=1;align=center;verticalAlign=middle;resizable=0;points=[];rotation=270;labelBackgroundColor=none;rounded=1;" vertex="1" connectable="0" parent="XXvjQiuoDlwYBHkbLlCv-38">
          <mxGeometry x="-0.8431" y="3" relative="1" as="geometry">
            <mxPoint x="-23" y="-79" as="offset" />
          </mxGeometry>
        </mxCell>
        <mxCell id="XXvjQiuoDlwYBHkbLlCv-40" value="&lt;span style=&quot;color: rgb(0, 0, 0); font-family: Helvetica; font-size: 11px; font-style: normal; font-variant-ligatures: normal; font-variant-caps: normal; font-weight: 400; letter-spacing: normal; orphans: 2; text-align: center; text-indent: 0px; text-transform: none; widows: 2; word-spacing: 0px; -webkit-text-stroke-width: 0px; background-color: rgb(255, 255, 255); text-decoration-thickness: initial; text-decoration-style: initial; text-decoration-color: initial; float: none; display: inline !important;&quot;&gt;User authenticated from cache&lt;/span&gt;" style="text;whiteSpace=wrap;html=1;labelBackgroundColor=none;rounded=1;" vertex="1" parent="1">
          <mxGeometry x="231" y="82" width="115" height="40" as="geometry" />
        </mxCell>
        <mxCell id="XXvjQiuoDlwYBHkbLlCv-41" value="&lt;span style=&quot;color: rgb(0, 0, 0); font-family: Helvetica; font-size: 11px; font-style: normal; font-variant-ligatures: normal; font-variant-caps: normal; letter-spacing: normal; orphans: 2; text-align: center; text-indent: 0px; text-transform: none; widows: 2; word-spacing: 0px; -webkit-text-stroke-width: 0px; background-color: rgb(255, 255, 255); text-decoration-thickness: initial; text-decoration-style: initial; text-decoration-color: initial; float: none; display: inline !important;&quot;&gt;Login page&lt;/span&gt;" style="text;whiteSpace=wrap;html=1;labelBackgroundColor=none;rounded=1;fontStyle=1" vertex="1" parent="1">
          <mxGeometry x="108" y="440" width="115" height="40" as="geometry" />
        </mxCell>
        <mxCell id="XXvjQiuoDlwYBHkbLlCv-42" value="&lt;span style=&quot;color: rgb(0, 0, 0); font-family: Helvetica; font-size: 11px; font-style: normal; font-variant-ligatures: normal; font-variant-caps: normal; letter-spacing: normal; orphans: 2; text-align: center; text-indent: 0px; text-transform: none; widows: 2; word-spacing: 0px; -webkit-text-stroke-width: 0px; background-color: rgb(255, 255, 255); text-decoration-thickness: initial; text-decoration-style: initial; text-decoration-color: initial; float: none; display: inline !important;&quot;&gt;Registration page&lt;/span&gt;" style="text;whiteSpace=wrap;html=1;labelBackgroundColor=none;rounded=1;fontStyle=1" vertex="1" parent="1">
          <mxGeometry x="108" y="780" width="115" height="40" as="geometry" />
        </mxCell>
        <mxCell id="XXvjQiuoDlwYBHkbLlCv-45" value="" style="rounded=1;whiteSpace=wrap;html=1;labelBackgroundColor=none;" vertex="1" parent="1">
          <mxGeometry x="530" y="40" width="140" height="290" as="geometry" />
        </mxCell>
        <mxCell id="XXvjQiuoDlwYBHkbLlCv-46" value="app name / logo" style="rounded=1;whiteSpace=wrap;html=1;labelBackgroundColor=none;" vertex="1" parent="1">
          <mxGeometry x="541" y="55" width="118" height="41" as="geometry" />
        </mxCell>
        <mxCell id="XXvjQiuoDlwYBHkbLlCv-47" value="Find online players" style="rounded=1;whiteSpace=wrap;html=1;labelBackgroundColor=none;" vertex="1" parent="1">
          <mxGeometry x="541" y="122" width="118" height="27" as="geometry" />
        </mxCell>
        <mxCell id="XXvjQiuoDlwYBHkbLlCv-48" value="Join with invitation code" style="rounded=1;whiteSpace=wrap;html=1;labelBackgroundColor=none;" vertex="1" parent="1">
          <mxGeometry x="539" y="163" width="118" height="26" as="geometry" />
        </mxCell>
        <mxCell id="XXvjQiuoDlwYBHkbLlCv-100" style="edgeStyle=orthogonalEdgeStyle;rounded=1;orthogonalLoop=1;jettySize=auto;html=1;exitX=0.5;exitY=1;exitDx=0;exitDy=0;" edge="1" parent="1" source="XXvjQiuoDlwYBHkbLlCv-49">
          <mxGeometry relative="1" as="geometry">
            <mxPoint x="490" y="460" as="targetPoint" />
          </mxGeometry>
        </mxCell>
        <mxCell id="XXvjQiuoDlwYBHkbLlCv-49" value="&lt;font style=&quot;font-size: 7px;&quot;&gt;Personal Game Records&lt;/font&gt;" style="rounded=1;whiteSpace=wrap;html=1;labelBackgroundColor=none;" vertex="1" parent="1">
          <mxGeometry x="539" y="254" width="58" height="43" as="geometry" />
        </mxCell>
        <mxCell id="XXvjQiuoDlwYBHkbLlCv-101" style="edgeStyle=orthogonalEdgeStyle;rounded=1;orthogonalLoop=1;jettySize=auto;html=1;exitX=0.5;exitY=1;exitDx=0;exitDy=0;entryX=0.5;entryY=0;entryDx=0;entryDy=0;" edge="1" parent="1" source="XXvjQiuoDlwYBHkbLlCv-50" target="XXvjQiuoDlwYBHkbLlCv-54">
          <mxGeometry relative="1" as="geometry">
            <Array as="points">
              <mxPoint x="632" y="780" />
              <mxPoint x="484" y="780" />
            </Array>
          </mxGeometry>
        </mxCell>
        <mxCell id="XXvjQiuoDlwYBHkbLlCv-50" value="&lt;font style=&quot;font-size: 9px;&quot;&gt;Leaderboard&lt;/font&gt;" style="rounded=1;whiteSpace=wrap;html=1;labelBackgroundColor=none;" vertex="1" parent="1">
          <mxGeometry x="603" y="254" width="58" height="44" as="geometry" />
        </mxCell>
        <mxCell id="XXvjQiuoDlwYBHkbLlCv-51" value="&amp;nbsp;on failure&amp;nbsp;&lt;br&gt;(with message)" style="edgeLabel;html=1;align=center;verticalAlign=middle;resizable=0;points=[];" vertex="1" connectable="0" parent="1">
          <mxGeometry x="809.9957124608522" y="174.0029607242931" as="geometry" />
        </mxCell>
        <mxCell id="XXvjQiuoDlwYBHkbLlCv-52" value="&lt;span style=&quot;color: rgb(0, 0, 0); font-family: Helvetica; font-size: 11px; font-style: normal; font-variant-ligatures: normal; font-variant-caps: normal; letter-spacing: normal; orphans: 2; text-align: center; text-indent: 0px; text-transform: none; widows: 2; word-spacing: 0px; -webkit-text-stroke-width: 0px; background-color: rgb(255, 255, 255); text-decoration-thickness: initial; text-decoration-style: initial; text-decoration-color: initial; float: none; display: inline !important;&quot;&gt;Application Home&amp;nbsp;&lt;/span&gt;" style="text;whiteSpace=wrap;html=1;labelBackgroundColor=none;rounded=1;fontStyle=1" vertex="1" parent="1">
          <mxGeometry x="553.94" y="11" width="115" height="40" as="geometry" />
        </mxCell>
        <mxCell id="XXvjQiuoDlwYBHkbLlCv-53" value="Invite others" style="rounded=1;whiteSpace=wrap;html=1;labelBackgroundColor=none;" vertex="1" parent="1">
          <mxGeometry x="541" y="203" width="118" height="26" as="geometry" />
        </mxCell>
        <mxCell id="XXvjQiuoDlwYBHkbLlCv-97" value="" style="group" vertex="1" connectable="0" parent="1">
          <mxGeometry x="413.94" y="455" width="140" height="290" as="geometry" />
        </mxCell>
        <mxCell id="XXvjQiuoDlwYBHkbLlCv-60" value="view all records" style="rounded=1;whiteSpace=wrap;html=1;" vertex="1" parent="XXvjQiuoDlwYBHkbLlCv-97">
          <mxGeometry x="4.560000000000002" y="228" width="112" height="15" as="geometry" />
        </mxCell>
        <mxCell id="XXvjQiuoDlwYBHkbLlCv-61" value="" style="rounded=1;whiteSpace=wrap;html=1;labelBackgroundColor=none;" vertex="1" parent="XXvjQiuoDlwYBHkbLlCv-97">
          <mxGeometry y="10" width="140" height="290" as="geometry" />
        </mxCell>
        <mxCell id="XXvjQiuoDlwYBHkbLlCv-79" value="LEADERBOARD" style="text;html=1;align=center;verticalAlign=middle;resizable=0;points=[];autosize=1;strokeColor=none;fillColor=none;" vertex="1" parent="XXvjQiuoDlwYBHkbLlCv-97">
          <mxGeometry x="17.560000000000002" y="43" width="109" height="26" as="geometry" />
        </mxCell>
        <mxCell id="XXvjQiuoDlwYBHkbLlCv-80" value="top players" style="text;html=1;align=center;verticalAlign=middle;resizable=0;points=[];autosize=1;strokeColor=none;fillColor=none;" vertex="1" parent="XXvjQiuoDlwYBHkbLlCv-97">
          <mxGeometry x="33.56" y="87" width="77" height="26" as="geometry" />
        </mxCell>
        <mxCell id="XXvjQiuoDlwYBHkbLlCv-81" value="" style="shape=table;startSize=0;container=1;collapsible=0;childLayout=tableLayout;" vertex="1" parent="XXvjQiuoDlwYBHkbLlCv-97">
          <mxGeometry x="18" y="115" width="104" height="103.72413793103442" as="geometry" />
        </mxCell>
        <mxCell id="XXvjQiuoDlwYBHkbLlCv-82" value="" style="shape=tableRow;horizontal=0;startSize=0;swimlaneHead=0;swimlaneBody=0;strokeColor=inherit;top=0;left=0;bottom=0;right=0;collapsible=0;dropTarget=0;fillColor=none;points=[[0,0.5],[1,0.5]];portConstraint=eastwest;" vertex="1" parent="XXvjQiuoDlwYBHkbLlCv-81">
          <mxGeometry width="104" height="44" as="geometry" />
        </mxCell>
        <mxCell id="XXvjQiuoDlwYBHkbLlCv-83" value="player&lt;br&gt;name" style="shape=partialRectangle;html=1;whiteSpace=wrap;connectable=0;strokeColor=inherit;overflow=hidden;fillColor=none;top=0;left=0;bottom=0;right=0;pointerEvents=1;" vertex="1" parent="XXvjQiuoDlwYBHkbLlCv-82">
          <mxGeometry width="53" height="44" as="geometry">
            <mxRectangle width="53" height="44" as="alternateBounds" />
          </mxGeometry>
        </mxCell>
        <mxCell id="XXvjQiuoDlwYBHkbLlCv-84" value="total wins" style="shape=partialRectangle;html=1;whiteSpace=wrap;connectable=0;strokeColor=inherit;overflow=hidden;fillColor=none;top=0;left=0;bottom=0;right=0;pointerEvents=1;" vertex="1" parent="XXvjQiuoDlwYBHkbLlCv-82">
          <mxGeometry x="53" width="51" height="44" as="geometry">
            <mxRectangle width="51" height="44" as="alternateBounds" />
          </mxGeometry>
        </mxCell>
        <mxCell id="XXvjQiuoDlwYBHkbLlCv-85" value="" style="shape=tableRow;horizontal=0;startSize=0;swimlaneHead=0;swimlaneBody=0;strokeColor=inherit;top=0;left=0;bottom=0;right=0;collapsible=0;dropTarget=0;fillColor=none;points=[[0,0.5],[1,0.5]];portConstraint=eastwest;" vertex="1" parent="XXvjQiuoDlwYBHkbLlCv-81">
          <mxGeometry y="44" width="104" height="20" as="geometry" />
        </mxCell>
        <mxCell id="XXvjQiuoDlwYBHkbLlCv-86" value="" style="shape=partialRectangle;html=1;whiteSpace=wrap;connectable=0;strokeColor=inherit;overflow=hidden;fillColor=none;top=0;left=0;bottom=0;right=0;pointerEvents=1;" vertex="1" parent="XXvjQiuoDlwYBHkbLlCv-85">
          <mxGeometry width="53" height="20" as="geometry">
            <mxRectangle width="53" height="20" as="alternateBounds" />
          </mxGeometry>
        </mxCell>
        <mxCell id="XXvjQiuoDlwYBHkbLlCv-87" value="" style="shape=partialRectangle;html=1;whiteSpace=wrap;connectable=0;strokeColor=inherit;overflow=hidden;fillColor=none;top=0;left=0;bottom=0;right=0;pointerEvents=1;" vertex="1" parent="XXvjQiuoDlwYBHkbLlCv-85">
          <mxGeometry x="53" width="51" height="20" as="geometry">
            <mxRectangle width="51" height="20" as="alternateBounds" />
          </mxGeometry>
        </mxCell>
        <mxCell id="XXvjQiuoDlwYBHkbLlCv-88" value="" style="shape=tableRow;horizontal=0;startSize=0;swimlaneHead=0;swimlaneBody=0;strokeColor=inherit;top=0;left=0;bottom=0;right=0;collapsible=0;dropTarget=0;fillColor=none;points=[[0,0.5],[1,0.5]];portConstraint=eastwest;" vertex="1" parent="XXvjQiuoDlwYBHkbLlCv-81">
          <mxGeometry y="64" width="104" height="20" as="geometry" />
        </mxCell>
        <mxCell id="XXvjQiuoDlwYBHkbLlCv-89" value="" style="shape=partialRectangle;html=1;whiteSpace=wrap;connectable=0;strokeColor=inherit;overflow=hidden;fillColor=none;top=0;left=0;bottom=0;right=0;pointerEvents=1;" vertex="1" parent="XXvjQiuoDlwYBHkbLlCv-88">
          <mxGeometry width="53" height="20" as="geometry">
            <mxRectangle width="53" height="20" as="alternateBounds" />
          </mxGeometry>
        </mxCell>
        <mxCell id="XXvjQiuoDlwYBHkbLlCv-90" value="" style="shape=partialRectangle;html=1;whiteSpace=wrap;connectable=0;strokeColor=inherit;overflow=hidden;fillColor=none;top=0;left=0;bottom=0;right=0;pointerEvents=1;" vertex="1" parent="XXvjQiuoDlwYBHkbLlCv-88">
          <mxGeometry x="53" width="51" height="20" as="geometry">
            <mxRectangle width="51" height="20" as="alternateBounds" />
          </mxGeometry>
        </mxCell>
        <mxCell id="XXvjQiuoDlwYBHkbLlCv-91" value="" style="shape=tableRow;horizontal=0;startSize=0;swimlaneHead=0;swimlaneBody=0;strokeColor=inherit;top=0;left=0;bottom=0;right=0;collapsible=0;dropTarget=0;fillColor=none;points=[[0,0.5],[1,0.5]];portConstraint=eastwest;" vertex="1" parent="XXvjQiuoDlwYBHkbLlCv-81">
          <mxGeometry y="84" width="104" height="20" as="geometry" />
        </mxCell>
        <mxCell id="XXvjQiuoDlwYBHkbLlCv-92" value="" style="shape=partialRectangle;html=1;whiteSpace=wrap;connectable=0;strokeColor=inherit;overflow=hidden;fillColor=none;top=0;left=0;bottom=0;right=0;pointerEvents=1;" vertex="1" parent="XXvjQiuoDlwYBHkbLlCv-91">
          <mxGeometry width="53" height="20" as="geometry">
            <mxRectangle width="53" height="20" as="alternateBounds" />
          </mxGeometry>
        </mxCell>
        <mxCell id="XXvjQiuoDlwYBHkbLlCv-93" value="" style="shape=partialRectangle;html=1;whiteSpace=wrap;connectable=0;strokeColor=inherit;overflow=hidden;fillColor=none;top=0;left=0;bottom=0;right=0;pointerEvents=1;" vertex="1" parent="XXvjQiuoDlwYBHkbLlCv-91">
          <mxGeometry x="53" width="51" height="20" as="geometry">
            <mxRectangle width="51" height="20" as="alternateBounds" />
          </mxGeometry>
        </mxCell>
        <mxCell id="XXvjQiuoDlwYBHkbLlCv-94" value="view all records" style="rounded=1;whiteSpace=wrap;html=1;" vertex="1" parent="XXvjQiuoDlwYBHkbLlCv-97">
          <mxGeometry x="14.560000000000002" y="238" width="112" height="15" as="geometry" />
        </mxCell>
        <mxCell id="XXvjQiuoDlwYBHkbLlCv-95" value="your position: --" style="rounded=1;whiteSpace=wrap;html=1;" vertex="1" parent="XXvjQiuoDlwYBHkbLlCv-97">
          <mxGeometry x="14" y="63" width="112" height="15" as="geometry" />
        </mxCell>
        <mxCell id="XXvjQiuoDlwYBHkbLlCv-98" value="" style="group" vertex="1" connectable="0" parent="1">
          <mxGeometry x="413.94" y="810" width="140.00000000000006" height="290" as="geometry" />
        </mxCell>
        <mxCell id="XXvjQiuoDlwYBHkbLlCv-54" value="" style="rounded=1;whiteSpace=wrap;html=1;labelBackgroundColor=none;" vertex="1" parent="XXvjQiuoDlwYBHkbLlCv-98">
          <mxGeometry width="140" height="290" as="geometry" />
        </mxCell>
        <mxCell id="XXvjQiuoDlwYBHkbLlCv-55" value="last 5 games" style="text;html=1;align=center;verticalAlign=middle;resizable=0;points=[];autosize=1;strokeColor=none;fillColor=none;" vertex="1" parent="XXvjQiuoDlwYBHkbLlCv-98">
          <mxGeometry x="29.560000000000002" y="62" width="86" height="26" as="geometry" />
        </mxCell>
        <mxCell id="XXvjQiuoDlwYBHkbLlCv-56" value="" style="shape=table;startSize=0;container=1;collapsible=0;childLayout=tableLayout;" vertex="1" parent="XXvjQiuoDlwYBHkbLlCv-98">
          <mxGeometry x="9" y="100" width="125" height="25" as="geometry" />
        </mxCell>
        <mxCell id="XXvjQiuoDlwYBHkbLlCv-57" value="" style="shape=tableRow;horizontal=0;startSize=0;swimlaneHead=0;swimlaneBody=0;strokeColor=inherit;top=0;left=0;bottom=0;right=0;collapsible=0;dropTarget=0;fillColor=none;points=[[0,0.5],[1,0.5]];portConstraint=eastwest;" vertex="1" parent="XXvjQiuoDlwYBHkbLlCv-56">
          <mxGeometry width="125" height="25" as="geometry" />
        </mxCell>
        <mxCell id="XXvjQiuoDlwYBHkbLlCv-58" value="opponent&lt;span style=&quot;white-space: pre;&quot;&gt;&#x9;&lt;/span&gt;" style="shape=partialRectangle;html=1;whiteSpace=wrap;connectable=0;strokeColor=inherit;overflow=hidden;fillColor=none;top=0;left=0;bottom=0;right=0;pointerEvents=1;align=center;" vertex="1" parent="XXvjQiuoDlwYBHkbLlCv-57">
          <mxGeometry width="63" height="25" as="geometry">
            <mxRectangle width="63" height="25" as="alternateBounds" />
          </mxGeometry>
        </mxCell>
        <mxCell id="XXvjQiuoDlwYBHkbLlCv-59" value="status" style="shape=partialRectangle;html=1;whiteSpace=wrap;connectable=0;strokeColor=inherit;overflow=hidden;fillColor=none;top=0;left=0;bottom=0;right=0;pointerEvents=1;" vertex="1" parent="XXvjQiuoDlwYBHkbLlCv-57">
          <mxGeometry x="63" width="62" height="25" as="geometry">
            <mxRectangle width="62" height="25" as="alternateBounds" />
          </mxGeometry>
        </mxCell>
        <mxCell id="XXvjQiuoDlwYBHkbLlCv-62" value="PERSONAL&lt;br&gt;RECORS" style="text;html=1;align=center;verticalAlign=middle;resizable=0;points=[];autosize=1;strokeColor=none;fillColor=none;" vertex="1" parent="XXvjQiuoDlwYBHkbLlCv-98">
          <mxGeometry x="31" y="17" width="83" height="41" as="geometry" />
        </mxCell>
        <mxCell id="XXvjQiuoDlwYBHkbLlCv-63" value="" style="shape=table;startSize=0;container=1;collapsible=0;childLayout=tableLayout;" vertex="1" parent="XXvjQiuoDlwYBHkbLlCv-98">
          <mxGeometry x="9" y="126" width="125" height="72" as="geometry" />
        </mxCell>
        <mxCell id="XXvjQiuoDlwYBHkbLlCv-64" value="" style="shape=tableRow;horizontal=0;startSize=0;swimlaneHead=0;swimlaneBody=0;strokeColor=inherit;top=0;left=0;bottom=0;right=0;collapsible=0;dropTarget=0;fillColor=none;points=[[0,0.5],[1,0.5]];portConstraint=eastwest;" vertex="1" parent="XXvjQiuoDlwYBHkbLlCv-63">
          <mxGeometry width="125" height="14" as="geometry" />
        </mxCell>
        <mxCell id="XXvjQiuoDlwYBHkbLlCv-65" value="" style="shape=partialRectangle;html=1;whiteSpace=wrap;connectable=0;strokeColor=inherit;overflow=hidden;fillColor=none;top=0;left=0;bottom=0;right=0;pointerEvents=1;" vertex="1" parent="XXvjQiuoDlwYBHkbLlCv-64">
          <mxGeometry width="64" height="14" as="geometry">
            <mxRectangle width="64" height="14" as="alternateBounds" />
          </mxGeometry>
        </mxCell>
        <mxCell id="XXvjQiuoDlwYBHkbLlCv-66" value="" style="shape=partialRectangle;html=1;whiteSpace=wrap;connectable=0;strokeColor=inherit;overflow=hidden;fillColor=none;top=0;left=0;bottom=0;right=0;pointerEvents=1;" vertex="1" parent="XXvjQiuoDlwYBHkbLlCv-64">
          <mxGeometry x="64" width="61" height="14" as="geometry">
            <mxRectangle width="61" height="14" as="alternateBounds" />
          </mxGeometry>
        </mxCell>
        <mxCell id="XXvjQiuoDlwYBHkbLlCv-67" value="" style="shape=tableRow;horizontal=0;startSize=0;swimlaneHead=0;swimlaneBody=0;strokeColor=inherit;top=0;left=0;bottom=0;right=0;collapsible=0;dropTarget=0;fillColor=none;points=[[0,0.5],[1,0.5]];portConstraint=eastwest;" vertex="1" parent="XXvjQiuoDlwYBHkbLlCv-63">
          <mxGeometry y="14" width="125" height="14" as="geometry" />
        </mxCell>
        <mxCell id="XXvjQiuoDlwYBHkbLlCv-68" value="" style="shape=partialRectangle;html=1;whiteSpace=wrap;connectable=0;strokeColor=inherit;overflow=hidden;fillColor=none;top=0;left=0;bottom=0;right=0;pointerEvents=1;" vertex="1" parent="XXvjQiuoDlwYBHkbLlCv-67">
          <mxGeometry width="64" height="14" as="geometry">
            <mxRectangle width="64" height="14" as="alternateBounds" />
          </mxGeometry>
        </mxCell>
        <mxCell id="XXvjQiuoDlwYBHkbLlCv-69" value="" style="shape=partialRectangle;html=1;whiteSpace=wrap;connectable=0;strokeColor=inherit;overflow=hidden;fillColor=none;top=0;left=0;bottom=0;right=0;pointerEvents=1;" vertex="1" parent="XXvjQiuoDlwYBHkbLlCv-67">
          <mxGeometry x="64" width="61" height="14" as="geometry">
            <mxRectangle width="61" height="14" as="alternateBounds" />
          </mxGeometry>
        </mxCell>
        <mxCell id="XXvjQiuoDlwYBHkbLlCv-70" value="" style="shape=tableRow;horizontal=0;startSize=0;swimlaneHead=0;swimlaneBody=0;strokeColor=inherit;top=0;left=0;bottom=0;right=0;collapsible=0;dropTarget=0;fillColor=none;points=[[0,0.5],[1,0.5]];portConstraint=eastwest;" vertex="1" parent="XXvjQiuoDlwYBHkbLlCv-63">
          <mxGeometry y="28" width="125" height="16" as="geometry" />
        </mxCell>
        <mxCell id="XXvjQiuoDlwYBHkbLlCv-71" value="" style="shape=partialRectangle;html=1;whiteSpace=wrap;connectable=0;strokeColor=inherit;overflow=hidden;fillColor=none;top=0;left=0;bottom=0;right=0;pointerEvents=1;" vertex="1" parent="XXvjQiuoDlwYBHkbLlCv-70">
          <mxGeometry width="64" height="16" as="geometry">
            <mxRectangle width="64" height="16" as="alternateBounds" />
          </mxGeometry>
        </mxCell>
        <mxCell id="XXvjQiuoDlwYBHkbLlCv-72" value="" style="shape=partialRectangle;html=1;whiteSpace=wrap;connectable=0;strokeColor=inherit;overflow=hidden;fillColor=none;top=0;left=0;bottom=0;right=0;pointerEvents=1;" vertex="1" parent="XXvjQiuoDlwYBHkbLlCv-70">
          <mxGeometry x="64" width="61" height="16" as="geometry">
            <mxRectangle width="61" height="16" as="alternateBounds" />
          </mxGeometry>
        </mxCell>
        <mxCell id="XXvjQiuoDlwYBHkbLlCv-73" value="" style="shape=tableRow;horizontal=0;startSize=0;swimlaneHead=0;swimlaneBody=0;strokeColor=inherit;top=0;left=0;bottom=0;right=0;collapsible=0;dropTarget=0;fillColor=none;points=[[0,0.5],[1,0.5]];portConstraint=eastwest;" vertex="1" parent="XXvjQiuoDlwYBHkbLlCv-63">
          <mxGeometry y="44" width="125" height="14" as="geometry" />
        </mxCell>
        <mxCell id="XXvjQiuoDlwYBHkbLlCv-74" value="" style="shape=partialRectangle;html=1;whiteSpace=wrap;connectable=0;strokeColor=inherit;overflow=hidden;fillColor=none;top=0;left=0;bottom=0;right=0;pointerEvents=1;" vertex="1" parent="XXvjQiuoDlwYBHkbLlCv-73">
          <mxGeometry width="64" height="14" as="geometry">
            <mxRectangle width="64" height="14" as="alternateBounds" />
          </mxGeometry>
        </mxCell>
        <mxCell id="XXvjQiuoDlwYBHkbLlCv-75" value="" style="shape=partialRectangle;html=1;whiteSpace=wrap;connectable=0;strokeColor=inherit;overflow=hidden;fillColor=none;top=0;left=0;bottom=0;right=0;pointerEvents=1;" vertex="1" parent="XXvjQiuoDlwYBHkbLlCv-73">
          <mxGeometry x="64" width="61" height="14" as="geometry">
            <mxRectangle width="61" height="14" as="alternateBounds" />
          </mxGeometry>
        </mxCell>
        <mxCell id="XXvjQiuoDlwYBHkbLlCv-76" value="" style="shape=tableRow;horizontal=0;startSize=0;swimlaneHead=0;swimlaneBody=0;strokeColor=inherit;top=0;left=0;bottom=0;right=0;collapsible=0;dropTarget=0;fillColor=none;points=[[0,0.5],[1,0.5]];portConstraint=eastwest;" vertex="1" parent="XXvjQiuoDlwYBHkbLlCv-63">
          <mxGeometry y="58" width="125" height="14" as="geometry" />
        </mxCell>
        <mxCell id="XXvjQiuoDlwYBHkbLlCv-77" value="" style="shape=partialRectangle;html=1;whiteSpace=wrap;connectable=0;strokeColor=inherit;overflow=hidden;fillColor=none;top=0;left=0;bottom=0;right=0;pointerEvents=1;" vertex="1" parent="XXvjQiuoDlwYBHkbLlCv-76">
          <mxGeometry width="64" height="14" as="geometry">
            <mxRectangle width="64" height="14" as="alternateBounds" />
          </mxGeometry>
        </mxCell>
        <mxCell id="XXvjQiuoDlwYBHkbLlCv-78" value="" style="shape=partialRectangle;html=1;whiteSpace=wrap;connectable=0;strokeColor=inherit;overflow=hidden;fillColor=none;top=0;left=0;bottom=0;right=0;pointerEvents=1;" vertex="1" parent="XXvjQiuoDlwYBHkbLlCv-76">
          <mxGeometry x="64" width="61" height="14" as="geometry">
            <mxRectangle width="61" height="14" as="alternateBounds" />
          </mxGeometry>
        </mxCell>
        <mxCell id="XXvjQiuoDlwYBHkbLlCv-96" value="view all records" style="rounded=1;whiteSpace=wrap;html=1;" vertex="1" parent="XXvjQiuoDlwYBHkbLlCv-98">
          <mxGeometry x="18.060000000000002" y="236" width="112" height="15" as="geometry" />
        </mxCell>
        <mxCell id="XXvjQiuoDlwYBHkbLlCv-104" style="edgeStyle=orthogonalEdgeStyle;rounded=1;orthogonalLoop=1;jettySize=auto;html=1;entryX=-0.011;entryY=0.686;entryDx=0;entryDy=0;entryPerimeter=0;exitX=1.004;exitY=0.218;exitDx=0;exitDy=0;exitPerimeter=0;" edge="1" parent="1">
          <mxGeometry relative="1" as="geometry">
            <mxPoint x="216.51999999999998" y="870.1800000000001" as="sourcePoint" />
            <mxPoint x="528.4599999999998" y="233.93999999999994" as="targetPoint" />
            <Array as="points">
              <mxPoint x="216" y="866" />
              <mxPoint x="326" y="866" />
              <mxPoint x="326" y="235" />
              <mxPoint x="520" y="235" />
              <mxPoint x="520" y="234" />
            </Array>
          </mxGeometry>
        </mxCell>
        <mxCell id="XXvjQiuoDlwYBHkbLlCv-106" style="edgeStyle=orthogonalEdgeStyle;rounded=1;orthogonalLoop=1;jettySize=auto;html=1;exitX=1;exitY=0.25;exitDx=0;exitDy=0;entryX=-0.011;entryY=0.627;entryDx=0;entryDy=0;entryPerimeter=0;" edge="1" parent="1">
          <mxGeometry relative="1" as="geometry">
            <mxPoint x="211" y="529.5" as="sourcePoint" />
            <mxPoint x="528.4599999999998" y="216.82999999999993" as="targetPoint" />
            <Array as="points">
              <mxPoint x="300" y="529" />
              <mxPoint x="300" y="217" />
            </Array>
          </mxGeometry>
        </mxCell>
        <mxCell id="XXvjQiuoDlwYBHkbLlCv-107" style="edgeStyle=orthogonalEdgeStyle;rounded=0;orthogonalLoop=1;jettySize=auto;html=1;exitX=1;exitY=0.5;exitDx=0;exitDy=0;entryX=-0.014;entryY=0.539;entryDx=0;entryDy=0;entryPerimeter=0;" edge="1" parent="1" source="XXvjQiuoDlwYBHkbLlCv-12" target="XXvjQiuoDlwYBHkbLlCv-45">
          <mxGeometry relative="1" as="geometry" />
        </mxCell>
      </root>
    </mxGraphModel>
  </diagram>
</mxfile>
